<svg width="82" height="83" viewBox="0 0 82 83" fill="none" xmlns="http://www.w3.org/2000/svg">
<rect x="4" y="4.5" width="74" height="74" rx="28" fill="#EBEDFA"/>
<rect x="4" y="4.5" width="74" height="74" rx="28" stroke="#F7F8FD" stroke-width="8"/>
<path d="M40.9993 50.2668C37.7822 50.2668 35.166 47.6506 35.166 44.4334C35.166 41.2162 37.7822 38.6001 40.9993 38.6001C44.2165 38.6001 46.8327 41.2162 46.8327 44.4334C46.8327 47.6506 44.2165 50.2668 40.9993 50.2668ZM40.9993 39.6001C38.3365 39.6001 36.166 41.7706 36.166 44.4334C36.166 47.0962 38.3365 49.2668 40.9993 49.2668C43.6622 49.2668 45.8327 47.0962 45.8327 44.4334C45.8327 41.7706 43.6622 39.6001 40.9993 39.6001Z" fill="#4653CD" stroke="#4653CD"/>
<path d="M42.4272 46.4133C42.2993 46.4133 42.1754 46.3677 42.0741 46.2664L39.2607 43.4531C39.0693 43.2616 39.0693 42.9382 39.2607 42.7468C39.4521 42.5554 39.7756 42.5554 39.967 42.7468L42.7803 45.5602C42.9717 45.7516 42.9717 46.075 42.7803 46.2664C42.679 46.3677 42.5551 46.4133 42.4272 46.4133Z" fill="#4653CD" stroke="#4653CD"/>
<path d="M39.5728 46.4533C39.445 46.4533 39.321 46.4077 39.2197 46.3064C39.0283 46.115 39.0283 45.7916 39.2197 45.6002L42.0331 42.7869C42.2245 42.5955 42.5479 42.5955 42.7393 42.7869C42.9307 42.9783 42.9307 43.3017 42.7393 43.4931L39.9329 46.2995C39.8164 46.4059 39.6843 46.4533 39.5728 46.4533Z" fill="#4653CD" stroke="#4653CD"/>
<path d="M27.5655 39.4535L27.5654 39.4535L28.5652 50.1306C28.7079 51.4838 29.0499 52.7521 30.0165 53.6936C30.9805 54.6326 32.6572 55.3334 35.6676 55.3334H46.3343C49.3447 55.3334 51.0212 54.6326 51.9851 53.6922C52.9518 52.7491 53.2939 51.4776 53.4367 50.1174L54.4365 39.4667L54.4369 39.4618C54.5824 38.0606 54.5935 36.1946 53.3624 34.821L27.5655 39.4535ZM27.5655 39.4535L27.5649 39.448M27.5655 39.4535L27.5649 39.448M27.5649 39.448C27.4196 38.061 27.4083 36.1946 28.6396 34.8209M27.5649 39.448L28.6396 34.8209M28.6396 34.8209C29.6996 33.6434 31.5106 33.0134 34.3343 33.0134H47.6676C50.5033 33.0134 52.3148 33.6561 53.362 34.8205L28.6396 34.8209ZM29.5565 50.0267L29.5564 50.0267L29.5572 50.0336C29.6715 51.0967 29.8826 52.2322 30.8054 53.0675C31.7191 53.8945 33.223 54.3334 35.6676 54.3334H46.3343C48.7726 54.3334 50.2764 53.8943 51.1915 53.0657C52.1157 52.2291 52.3303 51.0909 52.4448 50.0199L52.4448 50.0199L52.4454 50.0135L53.4449 39.3651C53.445 39.3643 53.4451 39.3635 53.4452 39.3626C53.6222 37.6572 53.4248 36.3672 52.6259 35.4856C51.6864 34.4359 49.9433 34.0001 47.6676 34.0001H34.3343C32.0587 34.0001 30.3156 34.4358 29.3761 35.4855C28.5774 36.3668 28.3796 37.6564 28.5567 39.3494L29.5565 50.0267Z" fill="#4653CD" stroke="#4653CD"/>
<path d="M46.3327 34.5001C45.786 34.5001 45.3327 34.0467 45.3327 33.5001V32.4334C45.3327 30.0601 45.3327 29.1667 42.066 29.1667H39.9327C36.666 29.1667 36.666 30.0601 36.666 32.4334V33.5001C36.666 34.0467 36.2127 34.5001 35.666 34.5001C35.1193 34.5001 34.666 34.0467 34.666 33.5001V32.4334C34.666 30.0867 34.666 27.1667 39.9327 27.1667H42.066C47.3327 27.1667 47.3327 30.0867 47.3327 32.4334V33.5001C47.3327 34.0467 46.8793 34.5001 46.3327 34.5001Z" fill="#4653CD"/>
<path d="M46.3473 44.6867C45.894 44.6867 45.494 44.38 45.374 43.9267C45.2406 43.3933 45.5606 42.8467 46.094 42.7133C48.694 42.06 51.1073 40.9267 53.2673 39.3533C53.7073 39.0333 54.3473 39.1267 54.6673 39.58C54.9873 40.02 54.894 40.6467 54.4406 40.98C52.0673 42.7 49.4273 43.94 46.574 44.66C46.5073 44.6733 46.4273 44.6867 46.3473 44.6867Z" fill="#4653CD"/>
<path d="M35.6676 44.7268C35.5876 44.7268 35.5076 44.7134 35.4276 44.7001C32.7476 44.0468 30.2276 42.9134 27.921 41.3401C27.4676 41.0334 27.3476 40.4068 27.6543 39.9534C27.961 39.5001 28.5876 39.3801 29.041 39.6868C31.1476 41.1268 33.441 42.1534 35.8943 42.7534C36.4276 42.8868 36.761 43.4201 36.6276 43.9668C36.5343 44.4201 36.121 44.7268 35.6676 44.7268Z" fill="#4653CD"/>
</svg>
