<svg width="16" height="16" viewBox="0 0 16 16" fill="none" xmlns="http://www.w3.org/2000/svg">
<path d="M7.40004 15.1667H4.60004C1.99337 15.1667 0.833374 14.0067 0.833374 11.4V8.60004C0.833374 5.99337 1.99337 4.83337 4.60004 4.83337H7.40004C10.0067 4.83337 11.1667 5.99337 11.1667 8.60004V11.4C11.1667 14.0067 10.0067 15.1667 7.40004 15.1667ZM4.60004 5.83337C2.53337 5.83337 1.83337 6.53337 1.83337 8.60004V11.4C1.83337 13.4667 2.53337 14.1667 4.60004 14.1667H7.40004C9.46671 14.1667 10.1667 13.4667 10.1667 11.4V8.60004C10.1667 6.53337 9.46671 5.83337 7.40004 5.83337H4.60004Z" fill="#9F56D4"/>
<path d="M11.4 11.1667H10.6667C10.3934 11.1667 10.1667 10.94 10.1667 10.6667V8.60004C10.1667 6.53337 9.46671 5.83337 7.40004 5.83337H5.33337C5.06004 5.83337 4.83337 5.60671 4.83337 5.33337V4.60004C4.83337 1.99337 5.99337 0.833374 8.60004 0.833374H11.4C14.0067 0.833374 15.1667 1.99337 15.1667 4.60004V7.40004C15.1667 10.0067 14.0067 11.1667 11.4 11.1667ZM11.1667 10.1667H11.4C13.4667 10.1667 14.1667 9.46671 14.1667 7.40004V4.60004C14.1667 2.53337 13.4667 1.83337 11.4 1.83337H8.60004C6.53337 1.83337 5.83337 2.53337 5.83337 4.60004V4.83337H7.40004C10.0067 4.83337 11.1667 5.99337 11.1667 8.60004V10.1667Z" fill="#9F56D4"/>
</svg>
